<?xml version="1.0" encoding="utf-8"?>
<!-- Generator: Adobe Illustrator 23.1.0, SVG Export Plug-In . SVG Version: 6.00 Build 0)  -->
<svg version="1.1"
	 id="svg10" inkscape:version="0.92.3 (2405546, 2018-03-11)" sodipodi:docname="Umbrella_Corporation_logo.svg" xmlns:cc="http://creativecommons.org/ns#" xmlns:dc="http://purl.org/dc/elements/1.1/" xmlns:inkscape="http://www.inkscape.org/namespaces/inkscape" xmlns:rdf="http://www.w3.org/1999/02/22-rdf-syntax-ns#" xmlns:sodipodi="http://sodipodi.sourceforge.net/DTD/sodipodi-0.dtd" xmlns:svg="http://www.w3.org/2000/svg"
	 xmlns="http://www.w3.org/2000/svg" xmlns:xlink="http://www.w3.org/1999/xlink" x="0px" y="0px" viewBox="0 0 323.8 323.8"
	 style="enable-background:new 0 0 323.8 323.8;" xml:space="preserve">
<style type="text/css">
	.st0{fill:#ED1C24;}
	.st1{fill:#FFFFFF;}
</style>
<path d="M323.8,94.8c0,0-19.3-12.6-50.8-44.1C241.5,19.3,228.9,0,228.9,0s-22.5,4.7-67.1,4.7C117.4,4.7,94.8,0,94.8,0
	S82.2,19.3,50.8,50.8C19.3,82.2,0,94.8,0,94.8v0c0,0,4.7,22.5,4.7,67.1c0,44.5-4.7,67.1-4.7,67.1v0l0,0c0,0,19.3,12.6,50.8,44.1
	c31.5,31.5,44.1,50.8,44.1,50.8l0,0h0c0,0,22.5-4.7,67.1-4.7c44.5,0,67.1,4.7,67.1,4.7h0c0,0,12.6-19.3,44.1-50.8
	c31.5-31.5,50.8-44.1,50.8-44.1s-4.7-22.5-4.7-67.1C319.1,117.4,323.8,94.8,323.8,94.8z"/>
<g>
	<path class="st0" d="M156.7,161.9L4.8,99c1.4,9,3.9,30.1,3.9,62.9c0,32.8-2.6,53.9-4,62.9L156.7,161.9z"/>
	<path class="st0" d="M319,99l-151.9,62.9L319,224.8c-1.4-8.9-3.9-29.8-3.9-62.9S317.6,107.9,319,99z"/>
	<path class="st0" d="M224.8,4.8c-8.9,1.4-29.8,3.9-62.9,3.9s-54-2.6-62.9-3.9l62.9,151.9L224.8,4.8z"/>
	<path class="st0" d="M99,319c9.2-1.4,30.2-4,62.9-4c33,0,53.9,2.5,62.9,3.9l-62.9-151.9L99,319z"/>
</g>
<g>
	<path class="st1" d="M165.6,165.6l62.9,151.9c1.6-2.3,4.1-5.4,7.6-9.7c6.5-8.1,17.7-21.1,34.1-37.5c23.4-23.4,40-36.4,47.3-41.7
		L165.6,165.6z"/>
	<path class="st1" d="M53.6,53.6c-23.3,23.3-40,36.3-47.3,41.7l151.9,62.9L95.3,6.3C90,13.6,77,30.2,53.6,53.6z"/>
	<path class="st1" d="M53.6,270.2c23.3,23.3,36.3,40,41.7,47.3l62.9-151.9L6.3,228.5C13.8,234,30.4,247.1,53.6,270.2z"/>
	<path class="st1" d="M270.2,53.6c-23.4-23.4-36.4-40-41.7-47.3l-62.9,151.9l151.9-62.9C310.2,90,293.6,77,270.2,53.6z"/>
</g>
</svg>
